<?xml version="1.0" encoding="UTF-8" standalone="no"?>
<!DOCTYPE svg PUBLIC "-//W3C//DTD SVG 1.1//EN" "http://www.w3.org/Graphics/SVG/1.1/DTD/svg11.dtd">
<!-- Создано Microsoft Visio, экспорт SVG skopa_icon.svg Страница-1 -->
<svg xmlns="http://www.w3.org/2000/svg" xmlns:xlink="http://www.w3.org/1999/xlink" xmlns:ev="http://www.w3.org/2001/xml-events"
		width="2.95276in" height="2.75591in" viewBox="0 0 212.598 198.425" xml:space="preserve" color-interpolation-filters="sRGB"
		class="st3">
	<style type="text/css">
	<![CDATA[
		.st1 {fill:#363636;stroke:#363636;stroke-linecap:round;stroke-linejoin:round;stroke-width:0.75}
		.st2 {stroke:#ffffff;stroke-linecap:round;stroke-linejoin:round;stroke-width:4.5}
		.st3 {fill:none;fill-rule:evenodd;font-size:12px;overflow:visible;stroke-linecap:square;stroke-miterlimit:3}
	]]>
	</style>

	<g>
		<title>Страница-1</title>
		<g id="shape86-1">
			<title>Лист.86</title>
			<rect x="0" y="1.26719E-05" width="212.598" height="198.425" rx="42.5197" ry="42.5197" class="st1"/>
		</g>
		<g id="shape87-3" transform="translate(77.9017,-49.7491)">
			<title>Лист.87</title>
			<path d="M56.8 173.88 A28.3995 24.8406 -0 0 1 -0 173.88" class="st2"/>
			<path d="M56.79 124.29 A28.3973 24.8387 180 0 0 -0 124.29 A28.5139 24.9406 -180 0 0 28.45 149.09 A28.3405 24.789 0 0
						 1 56.79 173.89" class="st2"/>
		</g>
		<g id="shape88-7" transform="translate(148.524,-56.6929)">
			<title>Лист.88</title>
			<path d="M0 113.39 L42.81 156.2 L0 198.43" class="st2"/>
		</g>
		<g id="shape89-10" transform="translate(63.7795,-56.6929) scale(-1,1)">
			<title>Лист.89</title>
			<path d="M0 113.39 L42.81 156.2 L0 198.43" class="st2"/>
		</g>
	</g>
</svg>
