<?xml version="1.0" encoding="UTF-8" standalone="no"?>
<!DOCTYPE svg PUBLIC "-//W3C//DTD SVG 1.1//EN" "http://www.w3.org/Graphics/SVG/1.1/DTD/svg11.dtd">
<!-- Создано Microsoft Visio, экспорт SVG skopa_logo.svg Страница-1 -->
<svg xmlns="http://www.w3.org/2000/svg" xmlns:xlink="http://www.w3.org/1999/xlink" xmlns:ev="http://www.w3.org/2001/xml-events"
		width="5.50996in" height="3.17738in" viewBox="0 0 396.717 228.772" xml:space="preserve" color-interpolation-filters="sRGB"
		class="st6">
	<style type="text/css">
	<![CDATA[
		.st1 {stroke:#000000;stroke-linecap:round;stroke-linejoin:round;stroke-width:2}
		.st2 {fill:none;stroke:#000000;stroke-linecap:round;stroke-linejoin:round;stroke-width:2}
		.st3 {stroke:#000000;stroke-linecap:round;stroke-linejoin:round;stroke-width:5}
		.st4 {fill:none;stroke:#000000;stroke-linecap:round;stroke-linejoin:round;stroke-width:5}
		.st5 {fill:#000000;stroke:#000000;stroke-linecap:round;stroke-linejoin:round;stroke-width:0.75}
		.st6 {fill:none;fill-rule:evenodd;font-size:12px;overflow:visible;stroke-linecap:square;stroke-miterlimit:3}
	]]>
	</style>

	<g>
		<title>Страница-1</title>
		<g id="shape18-1" transform="translate(62.5637,286.465) rotate(180)">
			<title>Лист.18</title>
			<path d="M0 200.43 A28.3465 28.3465 -44.23 0 0 56.69 200.43" class="st1"/>
		</g>
		<g id="shape19-4" transform="translate(62.5637,-57.6929) scale(-1,1)">
			<title>Лист.19</title>
			<path d="M0 200.43 A28.3465 28.3465 -44.23 0 0 56.69 200.43" class="st1"/>
		</g>
		<g id="shape20-7" transform="translate(-93.3316,298.627) rotate(-135)">
			<title>Лист.20</title>
			<path d="M0 220.47 A28.3465 28.3465 -144.23 0 0 40.09 220.47" class="st1"/>
		</g>
		<g id="shape21-10" transform="translate(190.112,-41.5095) rotate(45) scale(-1,1)">
			<title>Лист.21</title>
			<path d="M0 220.47 A28.3465 28.3465 -172.99 0 0 40.09 220.47" class="st1"/>
		</g>
		<g id="shape22-13" transform="translate(305.509,1) rotate(90)">
			<title>Лист.22</title>
			<path d="M0 228.77 L170.08 228.77" class="st1"/>
		</g>
		<g id="shape23-16" transform="translate(-106.28,-22.8772) rotate(-53.1301)">
			<title>Лист.23</title>
			<path d="M0 228.77 L70.87 228.77" class="st1"/>
		</g>
		<g id="shape24-19" transform="translate(259.754,-22.8772) rotate(53.1301)">
			<title>Лист.24</title>
			<path d="M0 228.77 L70.87 228.77" class="st1"/>
		</g>
		<g id="shape25-22" transform="translate(175.949,286.465) rotate(180)">
			<title>Лист.25</title>
			<path d="M0 200.43 A28.3465 28.3465 -44.23 0 0 56.69 200.43" class="st1"/>
		</g>
		<g id="shape26-25" transform="translate(175.949,-57.6929) scale(-1,1)">
			<title>Лист.26</title>
			<path d="M0 200.43 A28.3465 28.3465 -44.23 0 0 56.69 200.43" class="st1"/>
		</g>
		<g id="shape27-28" transform="translate(348.028,86.0394) rotate(90)">
			<title>Лист.27</title>
			<path d="M0 228.77 L56.69 228.77" class="st1"/>
		</g>
		<g id="shape28-31" transform="translate(404.721,86.0394) rotate(90)">
			<title>Лист.28</title>
			<path d="M0 228.77 L56.69 228.77" class="st1"/>
		</g>
		<g id="shape30-34" transform="translate(190.123,-114.386)">
			<title>Лист.30</title>
			<ellipse cx="28.3464" cy="200.425" rx="28.3465" ry="28.3465" class="st2"/>
		</g>
		<g id="shape31-36" transform="translate(-38.6489,227.772) rotate(-90)">
			<title>Лист.31</title>
			<path d="M0 228.77 L141.75 228.77" class="st1"/>
		</g>
		<g id="shape32-39" transform="translate(232.642,-57.6929)">
			<title>Лист.32</title>
			<ellipse cx="28.3464" cy="200.425" rx="28.3465" ry="28.3465" class="st2"/>
		</g>
		<g id="shape33-41" transform="translate(289.335,300.638) rotate(180)">
			<title>Лист.33</title>
			<path d="M0 214.6 A14.1732 14.1732 -90 0 0 28.35 214.6" class="st1"/>
		</g>
		<g id="shape34-44" transform="translate(60.5637,171.079) rotate(-90)">
			<title>Лист.34</title>
			<path d="M0 228.77 L85.04 228.77" class="st1"/>
		</g>
		<g id="shape38-47" transform="translate(565.587,93.126) rotate(90)">
			<title>Лист.38</title>
			<path d="M0 228.77 L38.27 228.77" class="st3"/>
		</g>
		<g id="shape39-50" transform="translate(575.154,131.394) rotate(90)">
			<title>Лист.39</title>
			<path d="M0 228.77 L38.27 228.77" class="st3"/>
		</g>
		<g id="shape41-53" transform="translate(346.383,-97.378)">
			<title>Лист.41</title>
			<path d="M0 228.77 L19.13 228.77" class="st3"/>
		</g>
		<g id="shape42-56" transform="translate(346.383,-59.1103)">
			<title>Лист.42</title>
			<path d="M0 228.77 L19.13 228.77" class="st3"/>
		</g>
		<g id="shape44-59" transform="translate(346.383,-78.2441)">
			<title>Лист.44</title>
			<path d="M0 228.77 L19.13 228.77" class="st3"/>
		</g>
		<g id="shape46-62" transform="translate(606.591,225.147) rotate(-75.9638) scale(1,-1)">
			<title>Лист.46</title>
			<path d="M0 228.77 L39.45 228.77" class="st3"/>
		</g>
		<g id="shape48-65" transform="translate(597.024,75.9084) rotate(75.9638)">
			<title>Лист.48</title>
			<path d="M0 228.77 L39.45 228.77" class="st3"/>
		</g>
		<g id="shape51-68" transform="translate(317.682,-59.1103)">
			<title>Лист.51</title>
			<rect x="0" y="190.504" width="19.1338" height="38.2677" class="st4"/>
		</g>
		<g id="shape52-70" transform="translate(299.257,-57.6929)">
			<title>Лист.52</title>
			<ellipse cx="4.25197" cy="224.52" rx="4.25197" ry="4.25197" class="st5"/>
		</g>
	</g>
</svg>
