<?xml version="1.0" encoding="UTF-8" standalone="no"?>
<!DOCTYPE svg PUBLIC "-//W3C//DTD SVG 1.1//EN" "http://www.w3.org/Graphics/SVG/1.1/DTD/svg11.dtd">
<!-- Создано Microsoft Visio, экспорт SVG skopa_icon.svg Страница-1 -->
<svg xmlns="http://www.w3.org/2000/svg" xmlns:xlink="http://www.w3.org/1999/xlink" xmlns:ev="http://www.w3.org/2001/xml-events"
		width="0.787402in" height="0.787402in" viewBox="0 0 56.6929 56.6929" xml:space="preserve"
		color-interpolation-filters="sRGB" class="st4">
	<style type="text/css">
	<![CDATA[
		.st1 {fill:#ffffff;stroke:#ffffff;stroke-linecap:round;stroke-linejoin:round;stroke-width:0.75}
		.st2 {stroke:#00b0f0;stroke-linecap:round;stroke-linejoin:round;stroke-width:2}
		.st3 {stroke:#000000;stroke-linecap:round;stroke-linejoin:round;stroke-width:1.5}
		.st4 {fill:none;fill-rule:evenodd;font-size:12px;overflow:visible;stroke-linecap:square;stroke-miterlimit:3}
	]]>
	</style>

	<g>
		<title>Страница-1</title>
		<g id="shape65-1">
			<title>Лист.65</title>
			<rect x="0" y="3.09281E-06" width="56.6929" height="56.6929" rx="14.1732" ry="14.1732" class="st1"/>
		</g>
		<g id="shape58-3" transform="translate(21.2598,-14.1732)">
			<title>Лист.58</title>
			<path d="M14.17 35.43 A7.08661 7.08661 -102.87 0 0 -0 35.43 A7.08661 7.08661 -85.09 0 0 7.09 42.52 A7.0866 7.0866 165.8
						 0 1 14.17 49.61 A7.08661 7.08661 102.83 0 1 -0 49.61" class="st2"/>
		</g>
		<g id="shape59-6" transform="translate(76.9383,-26.016) rotate(45)">
			<title>Лист.59</title>
			<path d="M0 56.69 L20.26 56.69" class="st3"/>
		</g>
		<g id="shape60-9" transform="translate(91.2634,68.485) rotate(135)">
			<title>Лист.60</title>
			<path d="M0 56.69 L19.97 56.69" class="st3"/>
		</g>
		<g id="shape61-12" transform="translate(-20.2454,-26.016) rotate(-45) scale(-1,1)">
			<title>Лист.61</title>
			<path d="M0 56.69 L20.26 56.69" class="st3"/>
		</g>
		<g id="shape62-15" transform="translate(-34.5705,68.485) rotate(45) scale(1,-1)">
			<title>Лист.62</title>
			<path d="M0 56.69 L19.97 56.69" class="st3"/>
		</g>
	</g>
</svg>
